<svg xmlns="http://www.w3.org/2000/svg" version="1.1" xmlns:xlink="http://www.w3.org/1999/xlink" xmlns:svgjs="http://svgjs.dev/svgjs" width="2000" height="2250" viewBox="0 0 2000 2250"><g transform="matrix(1,0,0,1,0.00014687500004129106,0)"><svg viewBox="0 0 320 360" data-background-color="#ffffff" preserveAspectRatio="xMidYMid meet" height="2250" width="2000" xmlns="http://www.w3.org/2000/svg" xmlns:xlink="http://www.w3.org/1999/xlink"><g id="tight-bounds" transform="matrix(1,0,0,1,0.000023499999997511622,0)"><svg viewBox="0 0 320 360" height="360" width="320"><g><svg></svg></g><g><svg viewBox="0 0 320 360" height="360" width="320"><g><path transform="translate(-74.99272,-51.79039) scale(4.65793,4.65793)" d="M20.6 59.9l0.8 1-0.4-1.3c-0.1-0.6-0.8 0.1-0.4 0.3M21.5 59.3c0.3 0.5 0.6 1 0.6 1.5 0 0.7 0.6 1 1.1 1.2-0.7-0.8-1.1-3-1.7-2.7M59.9 16.9c1.7 0 3.3-0.2 5.1 0.2 4.4 1.1 8.1 3.3 10.6 6.4l7 11.2c0.3 2.8 0.9 5.9 0.8 9.3 0.7 0 0.6-1 1.4-1.2-0.8 2-1.2 4.5-1.4 7.4-0.5-1.6 0-4 0.1-5.3-0.7 1.1-1.1 0.3-1.1-0.2 0.1-0.8-0.3-0.7-0.6-1-1.1-1-1.8-2.1-2.6-3.8 0.5-1.3 0.6-3.2-1-4.2-0.5-0.3-1.1-0.8-1.4-1.6-0.4-1.1-1.1-2.4-0.9-4.1 0.1-0.5-1.5 1.1-2.4 0.4-3.9-2.7-7.8-5.8-12.5-8.4-2.5 0-4.3-0.9-5.2-2-0.8-1-0.2-2.3 1-2.4 0.7 0 1.5-0.2 2.1 0.2 0.1-0.4 0.5-0.9 1-0.9M50 14.6l0.2 0.1c1 0.2 1.5 1.6 2.6 1.1 0 0.7 0.1 1.4-0.1 1.9-0.3 0.8-1.2 0.8-1.9 0.8-6.7-0.4-10.6 2.4-14.7 4.8-1.1 0.7-2.3 1.2-3.2 2.1-4.3 4-9 7.7-10.1 15.1l-0.9 8.2c-0.1 0.9-1.1 1.8-0.9 2.9l0.7 4.9c-0.7-0.7-1.1 0.2-0.9 0.6 0.1 0.3 0.5 1.3 1.1 0.4 0.8 1.5 1.6 4.4 2.7 5.7 3.4 4 7.8 7.6 11.4 11.2 0.9-0.2 1.6-0.2 1.8-0.8 0.3 0.6-0.3 1.2-0.8 1.3 1.6 1 3.4 1.9 5.8 2.1 3.1 0.2 6 0.7 8.7 1.4 1.4-0.4 2.8-0.6 4.3-0.7 0.5 0 0.8-0.8 1.4-1l0.1-1c0.6 0.9 0.5-0.3 0.1-0.9 0.7 0.6 0.9 1.1 1.2 1.5 0-0.3 0.8-1.4 0.8-0.1l0.2-1.3c0.3-0.2 0.4 1.1 0.7 0.2 0.3-0.9 0.9-0.2 1.5-0.5-0.2 0.4-0.1 1.2 0.6 0.7l0.8-0.7c0.5 1.2 1.3 0.7 1.7 0.5 4.4-2.8 8.8-6.1 13-9.4l-0.1 1.3 0.5-1.6c0.5 0.5 0.9 0.1 1.1-0.2 0.6-1 1.4-2 2.7-2.9-1.6 4.3-3.5 7.7-5.9 10.5l-1 1.2c0 0.7-0.2 1.6-1 1.7-0.4 0.1-1.2-0.2-1.8 0.4-0.3 0.4 0.7 1.2-0.1 0.6-0.7-0.5-1.4 0-2.2 0.2-0.6 0.2 0.4 0.8 0.6 1.2 0.2 0.4 0.4 0.8 0.3 1.3l-1.1-1.2c-1.3 0.7-2.1 2-3.2 3-0.5 0.4-0.3 1.1-0.3 1.7-0.7 0-1.5-0.2-1.9 0.2-0.3 0.4-0.2 1-0.2 1.6-1-0.1-1.1-1.6-2-1.3-0.9 0.2-1.9 0.3-2.7 0.8 0.6 1.2-1 0.5-0.8 0.7-1.5-0.9-2.8-1.6-4.4-1-3.4-1.1-7.6-0.6-10.7-0.2 0-0.5 0.1-1-0.1-1.1-0.2 0.5-0.8 0.3-0.7 0.3-1.9-1.3-3.8-2.1-5.8-3.2-1.8 0.2-3.5-0.7-4-1.2-1.4-1.3-3-0.6-4.3-0.9-2.8-0.7-3.8-3.6-4.1-5.6-0.2-1-1-1.4-1.3-1.3-1.3-4.2-3.3-8-4.9-11.9-0.4-1-0.3-2-0.3-3.1 0.5 0.2 1 0.1 0.9-0.6-0.5-3.3-1.7-5.8-3-8.2 0.7-3.4 0.8-7.4 2.4-10.4 1.4-2.7 4-4.1 5.8-6.4 0.6-0.8 0.6-1.9 1.2-2.6 2-2 4-4.1 6.2-5.9 1-0.8 2.2 0 3.7-0.3 0.5-1.8 2.5-3.4 4.4-2.9 0.8 0.2 2.4-1.9 2.9-2.1 0.8-0.3 0.4 0.8 0.4 1.5 1.9-1.5 4.5-2.3 6.9-3.2" fill="#fe4f32" fill-rule="nonzero" stroke="none" stroke-width="1" stroke-linecap="butt" stroke-linejoin="miter" stroke-miterlimit="10" stroke-dasharray="" stroke-dashoffset="0" font-family="none" font-weight="none" font-size="none" text-anchor="none" style="mix-blend-mode: normal" data-fill-palette-color="tertiary"></path></g><g transform="matrix(1,0,0,1,105.93905495945911,90)"><svg viewBox="0 0 108.12189008108177 180" height="180" width="108.12189008108177"><g><svg viewBox="0 0 108.12189008108177 180" height="180" width="108.12189008108177"><g><svg viewBox="0 0 192 319.63925134940837" height="180" width="108.12189008108177"><g transform="matrix(1,0,0,1,0,150.09962870789894)"><svg viewBox="0 0 192 169.53962264150942" height="169.53962264150942" width="192"><g id="textblocktransform"><svg viewBox="0 0 192 169.53962264150942" height="169.53962264150942" width="192" id="textblock"><g><svg viewBox="0 0 192 169.53962264150942" height="169.53962264150942" width="192"><g transform="matrix(1,0,0,1,0,0)"><svg width="192" viewBox="3.1 -35.1 39.75 35.1" height="169.53962264150942" data-palette-color="#ffffff"><path d="M32.8-35.1L42.85-35.1 42.85 0 34.3 0 34.3-21.05 26.45 0 19.55 0 11.65-21.1 11.65 0 3.1 0 3.1-35.1 13.2-35.1 23.05-10.8 32.8-35.1Z" opacity="1" transform="matrix(1,0,0,1,0,0)" fill="#ffffff" class="wordmark-text-0" data-fill-palette-color="primary" id="text-0"></path></svg></g></svg></g></svg></g></svg></g><g transform="matrix(1,0,0,1,36.672,0)"><svg viewBox="0 0 118.656 125.35972881355931" height="125.35972881355931" width="118.656"><g><svg xmlns="http://www.w3.org/2000/svg" xmlns:xlink="http://www.w3.org/1999/xlink" version="1.1" x="0" y="0" viewBox="5.6999999999999975 3.2 88.50000000000001 93.50000000000001" enable-background="new 0 0 100 100" xml:space="preserve" height="125.35972881355931" width="118.656" class="icon-icon-0" data-fill-palette-color="accent" id="icon-0"><path d="M83.5 3.2c-11.2 0-22.3 0-33.5 0 0 0 0 0 0 0-11.2 0-22.5 0-33.7 0-6 0-10.6 4.5-10.6 10.4 0 18.6 0 37.1 0 55.7 0 1.1 0.2 2.2 0.5 3.2 1.3 4.4 5.2 7.3 9.8 7.3 2.6 0 5.2 0 7.8 0 1.4 3.1 3.4 6 5.9 8.5 5.4 5.4 12.6 8.4 20.3 8.4s14.9-3 20.3-8.4c2.5-2.5 4.5-5.4 5.9-8.5 2.4 0 4.8 0 7.2 0 1.7 0 3.4-0.2 4.9-1 3.9-2 5.9-5.2 5.9-9.6 0-18.4 0-36.9 0-55.3C94.2 7.7 89.8 3.2 83.5 3.2zM82.5 8.6c1.9 0 3.4 1.5 3.4 3.4s-1.5 3.4-3.4 3.4c-1.9 0-3.4-1.5-3.4-3.4S80.6 8.6 82.5 8.6zM70.7 8.6c1.9 0 3.4 1.5 3.4 3.4s-1.5 3.4-3.4 3.4c-1.9 0-3.4-1.5-3.4-3.4S68.9 8.6 70.7 8.6zM59 8.6c1.9 0 3.4 1.5 3.4 3.4s-1.5 3.4-3.4 3.4c-1.9 0-3.4-1.5-3.4-3.4S57.1 8.6 59 8.6zM27 68.1c0-2 0.3-4.1 0.8-6h8.4c-0.3 2.1-0.4 4.2-0.4 6.3 0 1.9 0.1 3.8 0.3 5.7-2.8 0-5.6 0-8.3 0C27.3 72.1 27 70.1 27 68.1zM41.5 68.4c0-2.1 0.2-4.2 0.5-6.3h16c0.3 1.9 0.4 3.8 0.4 5.7 0 2.1-0.2 4.2-0.5 6.3-5.4 0-10.7 0-16.1 0C41.6 72.2 41.5 70.2 41.5 68.4zM43.2 56.3c1.2-4 2.9-7.7 5.2-11.2 1.1-0.1 2.2-0.1 3.3 0 2.2 3.5 3.9 7.2 5 11.2H43.2zM59.4 47.1c4.3 1.9 8 5.2 10.4 9.3h-7.1C61.9 53.1 60.8 50 59.4 47.1zM63.7 62h8.5c0.5 2 0.8 4 0.8 6 0 2-0.3 4-0.8 6-2.8 0-5.7 0-8.5 0 0.3-2.1 0.4-4.2 0.4-6.3C64.1 65.8 64 63.9 63.7 62zM37.3 56.3h-7.1c2.5-4.1 6.2-7.4 10.6-9.3C39.3 50 38.1 53.1 37.3 56.3zM30.3 79.8c0.2 0 0.5 0 0.7 0 2.1 0 4.1 0 6.2 0 0.8 3.2 1.9 6.2 3.3 9.1C36.2 87 32.6 83.8 30.3 79.8zM48.1 91c-2.2-3.5-3.9-7.2-5-11.1 4.5 0 9 0 13.6 0-1.2 4-2.9 7.7-5.2 11.2C50.2 91.1 49.2 91.1 48.1 91zM59 89.2c1.5-3 2.7-6.1 3.5-9.4 2.4 0 4.8 0 7.2 0C67.2 84 63.5 87.3 59 89.2zM88.4 21.9c0 15.8 0 31.6 0 47.4 0 2.9-1.9 4.8-4.8 4.8-1.8 0-3.7 0-5.5 0 0.4-1.9 0.6-3.9 0.6-6 0-7.7-3-14.9-8.4-20.3-5.4-5.4-12.6-8.4-20.3-8.4s-14.9 3-20.3 8.4c-5.4 5.4-8.4 12.6-8.4 20.3 0 2 0.2 4 0.6 6-1.8 0-3.6 0-5.5 0-3 0-4.8-1.8-4.8-4.8 0-15.8 0-31.6 0-47.5 0-0.3 0-0.5 0-0.9 25.6 0 51.1 0 76.7 0C88.4 21.2 88.4 21.6 88.4 21.9z" fill="#fe4f32" data-fill-palette-color="accent"></path></svg></g></svg></g><g></g></svg></g></svg></g></svg></g></svg></g><defs></defs></svg><rect width="320" height="360" fill="none" stroke="none" visibility="hidden"></rect></g></svg></g></svg>